<?xml version="1.0" encoding="UTF-8"?><svg id="uuid-55769a9f-2e24-4608-8a21-a023fb7e7140" xmlns="http://www.w3.org/2000/svg" viewBox="0 0 79.9 79.57"><defs><style>.uuid-ae11b4f6-81d8-47ac-9e84-f6dbd0c2f094{fill:#fff;}.uuid-f2815f1b-5755-4492-85f7-a5784da0f94b{fill:#9f8ac0;}</style></defs><path class="uuid-ae11b4f6-81d8-47ac-9e84-f6dbd0c2f094" d="M2.11,63.17c-.42,.53-.77,1.1-1.07,1.73-.63,1.31-.99,2.75-1.03,4.21-.02,.6,.02,1.21,.11,1.8,.48,3.18,2.41,5.89,5.31,7.44,4.12,2.21,8.89,1.37,12.45-2.18,.18-.18,.35-.35,.5-.5l1.91-1.9c1.8-1.61,3.79-3.44,7.29-6.95,.63-.64,1.4-1.14,2.7-.5,3.63,1.78,7.63,2.86,11.9,3.21,9.77,.8,19.1-2.4,26.29-9.02,7.36-6.78,11.42-16.16,11.43-26.42-.02-.23-.04-.51-.07-.84-.07-.88-.16-2.09-.32-3.27-1.45-10.71-7.72-19.95-17.18-25.36C56.95,1.56,51.01,0,45.06,0c-4.53,0-9.07,.9-13.38,2.72-8.88,3.73-15.66,10.7-19.09,19.63-3.43,8.9-3.08,18.58,.98,27.25,.53,1.14,.38,1.96-.53,2.81-1.23,1.16-2.43,2.38-3.6,3.56-.49,.49-.97,.98-1.46,1.47-.98,.98-1.99,1.95-2.99,2.91-.97,.92-2.05,1.77-2.88,2.82Zm6.62-.9c1.46-1.3,3.24-2.96,6.07-5.79,.19-.19,.38-.36,.58-.55l.75-.69,8.53,8.54-.63,.7c-.17,.19-.35,.39-.54,.59-2.31,2.31-3.93,3.85-5.25,5.05l-3.28,3.1c-1.46,1.46-3.05,2.2-4.68,2.2-.84,0-1.69-.2-2.54-.59-1.74-.8-2.99-2.32-3.42-4.17-.43-1.84,.02-3.74,1.22-5.23,.59-.72,1.32-1.35,1.99-1.99,.4-.39,.79-.8,1.21-1.18Zm58.03-5.76c-5.78,5.79-13.48,8.99-21.67,8.99h-.02c-8.19,0-15.88-3.18-21.66-8.96-5.78-5.78-8.97-13.48-8.98-21.68,0-16.91,13.73-30.68,30.61-30.7h.04c16.86,0,30.59,13.75,30.61,30.66,.01,8.2-3.17,15.9-8.95,21.69Z"/><path class="uuid-f2815f1b-5755-4492-85f7-a5784da0f94b" d="M66.77,56.52c-5.78,5.79-13.48,8.99-21.67,8.99h-.02c-8.19,0-15.88-3.18-21.66-8.96-5.78-5.78-8.97-13.48-8.98-21.68,0-16.91,13.73-30.68,30.61-30.7h.04c16.86,0,30.59,13.75,30.61,30.66,.01,8.2-3.17,15.9-8.95,21.69Z"/><path class="uuid-ae11b4f6-81d8-47ac-9e84-f6dbd0c2f094" d="M62.24,25.88c-13.02-4.57-25.4-2.82-36.87,4.8-1.18,.78-2.34,2.4-2.51,3.76-.79,6.27,4.65,10.89,11.03,9.64,.48-8.36,3.41-12.44,9.84-13.69,6.25-1.22,10.24,1.39,14.41,9.85,1.83-.94,3.41-1.83,5.05-2.59,3.36-1.56,2.89-4.65,2.38-7.2-.34-1.72-1.83-4.04-3.34-4.57Z"/></svg>